<?xml version="1.0" encoding="UTF-8"?>
<svg id="Layer_2" data-name="Layer 2" xmlns="http://www.w3.org/2000/svg" viewBox="0 0 1024 1024">
  <defs>
    <style>
      .cls-1 {
        fill: #3B82F6;
      }
    </style>
    <filter id="glow">
      <feGaussianBlur stdDeviation="12" result="coloredBlur"/>
      <feMerge>
        <feMergeNode in="coloredBlur"/>
        <feMergeNode in="SourceGraphic"/>
      </feMerge>
    </filter>
  </defs>
  <g id="Layer_1-2" data-name="Layer 1" filter="url(#glow)">
    <g>
      <path class="cls-1" d="M490.8,124.3c-169.36,11.37-270.92,193.87-201.66,347.06,82.07,181.52,337.63,193.88,436.03,20.31,99.16-174.91-35.88-380.7-234.38-367.38ZM167,791h28l11.44-31.67,48.9.57,9.66,31.1h29l-49.46-136.07c-8.29.87-18.03-.92-26.1.01-1.43.17-2.64.1-3.36,1.64l-48.09,134.41ZM729.73,655.23c-7.23,1.48-9.4,7.57-8.73,14.27,1.59,15.89,26.78,14.38,28.04,0,1.08-12.27-8.44-16.5-19.32-14.27ZM331,656h-25v135h25v-34.5c0-.67,8.47-8.84,9.47-9.53.87-.61,1.39-1.71,2.56-.5l26.47,44.54h28.5l-36.84-62.69,35.83-36.82c-.75-1.64-2.33.5-2.5.5h-28l-35.5,36v-72ZM638,656h-25v135h25v-59.5c0-3.07,3.36-10.92,5.48-13.52,7.44-9.15,25.15-10.38,31.71.33,1.19,1.94,3.81,8.28,3.81,10.19v62.5h25v-70.5c0-1.04-2.22-8.65-2.81-10.19-9.74-25.21-48.24-29.21-62.2-6.32h-1.47c-1.41-.15.49-1.26.49-1.49v-46.5ZM495,791v-71.5c0-7.17-6.45-18.45-12.27-22.73-21.96-16.12-71.89-8.58-72.73,25.23h21.5c7.39-19.71,43.57-18.4,39.51,7-22.83,3.84-61.4-.68-64.9,30.6-4.29,38.4,45.64,42.82,65.88,19.39v12h23.01ZM596,719c-2.4-29.1-39.1-34.32-61.78-27.28-17.72,5.5-27.08,22.89-18.76,40.32,9.48,19.85,36.73,14.79,52.77,22.26,5.29,2.46,7.31,7.82,5.01,13.45-4.16,10.19-30.67,9.69-36.11-.37-1.16-2.14-.71-4.73-2.63-6.37h-23.5c-1.13,39.14,68.81,41.42,83.16,14.66,12.5-23.3-2.5-37.69-24.34-42.99-8.71-2.11-41.07-3.07-31.88-19.23,5-8.78,32.72-7.81,33.05,5.55h25ZM856,724c-4.29-27.94-32.51-39.15-58.03-33.53-34.98,7.69-46.39,50.87-29.77,79.84,20.19,35.2,81.9,29.26,87.81-13.31h-25c-3.45,11.51-12.11,15.06-23.54,14.04-20.86-1.85-24.71-27.83-19.18-44.27,7.02-20.89,33.75-22.71,43.23-2.77h24.5ZM747,692h-25v99h25v-99ZM575,857h-23v8.01s12,0,12,0c-3.02,20.28-28.45,15.21-30.01-3.51-1.72-20.6,20.43-31.23,30.11-11.57,2.94-1.33,6.34-1.21,9.39-1.94.96-.23,2.08.61,1.48-1.45-2.86-9.89-15.54-16.96-25.48-16.59-35.32,1.3-35.77,60.56,4.05,57.11,15.96-1.39,23.08-15.19,21.46-30.04ZM756,847.99c-12.7-31.87-53.42-19.05-49.99,15.5,2.83,28.53,42.11,32.85,50,6.52l-10.3-1.03c-13.44,19.89-34.24,3.24-28.44-17.22,4.19-14.8,23.26-16.97,27.8-1.79l10.93-1.98ZM386,831h-35v55h36c-1.49-2.97-1.49-6.03,0-9h-26v-14h23l-.36-7.56-1.25-1.29-21.38.84v-14s24.99,0,24.99,0v-10ZM413,831h-10v55h34v-9h-22.5l-1.5-1.5v-44.5ZM461,831h-11c-.5.37,1,1.29,1,1.5v53.5h34v-9h-24v-46ZM690,831h-11.01s1,38,1,38l-25.19-36.79-10.8-.21v54h11v-33.5c0-.23-1.9-1.34-.49-1.51h1.47s23.22,34.8,23.22,34.8l10.8.21v-55ZM807,841v-10c-.37-.5-1.29,1-1.5,1h-33.5v54h36c-1.49-2.97-1.49-6.03,0-9h-26v-14h23v-9h-23v-13h25ZM218,832h-10v54h10v-54ZM270,868l-25.01-35.49-9.99-.51v54h10v-36l24.43,35.07,11.57.92v-53.98s-11,0-11,0v36ZM337,832h-43l.94,8.56,15.06-.56v46h11v-46l15.07.53.93-8.53ZM508,832h-10v54h11c.5-.37-1-1.29-1-1.5v-52.5ZM627,832h-35v54h35v-9h-25v-14h22v-8h-22v-14h25v-9Z"/>
      <path d="M490.8,124.3c198.49-13.32,333.54,192.47,234.38,367.38-98.4,173.57-353.96,161.2-436.03-20.31-69.27-153.2,32.29-335.69,201.66-347.06ZM701.98,485.99c45.26-77.08,43.7-174.41-9.17-247.31-70.64-97.41-210.25-121.29-309.13-51.5-95.75,67.57-122.07,198.86-60.19,298.8l175.98-176,.02-12.98c-6.04,3.26-23.29,18.09-29.02,18.07-2.91,0-4.5-1.75-4.56-4.57,3.19-16.03,12.21-31,15.96-46.8-.66-2.29-31.22-22.74-35.88-27.2-3.05-2.92-6.13-5.36-2.58-9.6l49.18-1.81c4.38-6.08,13.16-48.66,16.39-50.61,1.43-.86,4.62-.86,6.04,0l15.94,51.05,49.56,1.43c1.79,2.56,2.35,5.49-.48,7.57l-37.91,29.16c2,13.86,13.02,29.88,15.42,43.25,1.11,6.16-.45,9.91-7.27,7.27-7.18-2.78-18.31-13.33-25.78-17.21l.02,12.98,174.96,175.04,2.5.97ZM511.64,331.07l-174.57,175.29c59.25,76.59,163.16,105.7,254.18,71.38,37.44-14.12,71.07-40.09,95.79-71.25l-175.4-175.43Z"/>
      <path d="M167,791l48.09-134.41c.72-1.54,1.92-1.48,3.36-1.64,8.07-.93,17.81.85,26.1-.01l49.46,136.07h-29l-9.66-31.1-48.9-.57-11.44,31.67h-28ZM248,738l-17.5-55.01-17.5,55.01h35Z"/>
      <path d="M638,656v46.5c0,.23-1.9,1.34-.49,1.51h1.47c13.97-22.9,52.46-18.9,62.2,6.31.59,1.54,2.81,9.15,2.81,10.19v70.5h-25v-62.5c0-1.91-2.62-8.25-3.81-10.19-6.56-10.71-24.27-9.48-31.71-.33-2.12,2.6-5.48,10.45-5.48,13.52v59.5h-25v-135h25Z"/>
      <path d="M331,656v72l35.5-36h28c.17,0,1.75-2.14,2.5-.5l-35.83,36.82,36.84,62.69h-28.5l-26.47-44.54c-1.17-1.21-1.69-.1-2.56.5-1,.69-9.47,8.86-9.47,9.53v34.5h-25v-135h25Z"/>
      <path d="M495,791h-23v-12c-20.25,23.43-70.18,19-65.89-19.39,3.5-31.28,42.07-26.76,64.9-30.6,4.07-25.41-32.12-26.71-39.51-7h-21.5c.84-33.8,50.77-41.35,72.73-25.23,5.82,4.27,12.27,15.56,12.27,22.73v71.5ZM469.99,745c-9.81,4.19-36.42.69-38.75,13.73-4.22,23.56,31.2,17.12,37.24,1.25,1.98-5.19,1.64-9.5,1.51-14.98Z"/>
      <path d="M596,719h-25c-.33-13.37-28.06-14.33-33.05-5.55-9.19,16.16,23.17,17.12,31.88,19.23,21.84,5.3,36.84,19.69,24.34,42.99-14.36,26.75-84.29,24.47-83.16-14.66h23.5c1.92,1.65,1.47,4.23,2.63,6.37,5.44,10.06,31.95,10.57,36.11.37,2.3-5.63.28-10.99-5.01-13.45-16.04-7.47-43.28-2.41-52.77-22.26-8.33-17.43,1.04-34.82,18.76-40.32,22.68-7.04,59.38-1.82,61.78,27.28Z"/>
      <path d="M856,724h-24.5c-9.48-19.94-36.21-18.12-43.23,2.77-5.52,16.44-1.68,42.41,19.18,44.27,11.43,1.02,20.1-2.53,23.54-14.04h25c-5.91,42.56-67.61,48.5-87.81,13.31-16.62-28.97-5.21-72.15,29.77-79.84,25.53-5.61,53.74,5.59,58.03,33.53Z"/>
      <rect x="722" y="692" width="25" height="99"/>
      <path d="M690,831v55l-10.8-.21-23.22-34.78h-1.47c-1.41.15.49,1.26.49,1.49v33.5h-11v-54l10.8.21,25.19,36.79-1-38h11.01Z"/>
      <polygon points="270 868 270 832 281 832.01 281 885.99 269.43 885.07 245 850 245 886 235 886 235 832 244.99 832.51 270 868"/>
      <path d="M575,857c1.62,14.85-5.49,28.66-21.46,30.04-39.83,3.46-39.37-55.8-4.05-57.11,9.94-.37,22.63,6.7,25.48,16.59.59,2.06-.52,1.22-1.48,1.45-3.05.73-6.45.61-9.39,1.94-9.69-19.66-31.83-9.02-30.11,11.57,1.56,18.72,26.99,23.79,30.01,3.51h-12s0-8.01,0-8.01h23Z"/>
      <path d="M756,847.99l-10.93,1.98c-4.55-15.18-23.61-13.02-27.8,1.79-5.79,20.46,15,37.11,28.44,17.22l10.3,1.03c-7.88,26.33-47.17,22.01-50-6.52-3.42-34.55,37.29-47.37,49.99-15.5Z"/>
      <path d="M386,831v10h-25v14s21.39-.84,21.39-.84l1.25,1.29.36,7.56h-23v14h26c-1.49,2.97-1.49,6.03,0,9h-36v-55h35Z"/>
      <path d="M807,841h-25v13h23v9h-23v14h26c-1.49,2.97-1.49,6.03,0,9h-36v-54h33.5c.21,0,1.13-1.49,1.49-1v10Z"/>
      <polygon points="627 832 627 841 602 841 602 855 624 855 624 863 602 863 602 877 627 877 627 886 592 886 592 832 627 832"/>
      <polygon points="337 832 336.07 840.53 321 840 321 886 310 886 310 840 294.94 840.56 294 832 337 832"/>
      <polygon points="413 831 413 875.5 414.5 877 437 877 437 886 403 886 403 831 413 831"/>
      <path d="M461,831v46h24v9h-34v-53.5c0-.21-1.5-1.13-1-1.49h11Z"/>
      <path d="M729.73,655.23c10.88-2.23,20.4,2,19.32,14.27-1.27,14.38-26.45,15.89-28.04,0-.67-6.7,1.49-12.79,8.73-14.27Z"/>
      <path d="M508,832v52.5c0,.21,1.5,1.13,1,1.49h-11s0-53.99,0-53.99h10Z"/>
      <rect x="208" y="832" width="10" height="54"/>
      <path class="cls-1" d="M701.98,485.99l-2.5-.97-174.96-175.04-.02-12.98c7.47,3.88,18.6,14.43,25.78,17.21,6.82,2.65,8.38-1.11,7.27-7.27-2.4-13.36-13.43-29.38-15.42-43.25l37.91-29.16c2.83-2.08,2.27-5.01.48-7.57l-49.56-1.43-15.94-51.05c-1.42-.86-4.61-.86-6.04,0-3.22,1.94-12.01,44.53-16.39,50.61l-49.18,1.81c-3.54,4.24-.47,6.68,2.58,9.6,4.66,4.46,35.22,24.91,35.88,27.2-3.74,15.8-12.77,30.77-15.96,46.8.07,2.82,1.66,4.56,4.56,4.57,5.73.02,22.99-14.81,29.02-18.07l-.02,12.98-175.98,176c-61.89-99.93-35.56-231.22,60.19-298.8,98.88-69.79,238.49-45.91,309.13,51.5,52.86,72.9,54.42,170.23,9.17,247.31Z"/>
      <path class="cls-1" d="M511.64,331.07l175.4,175.43c-24.71,31.16-58.34,57.13-95.79,71.25-91.02,34.32-194.93,5.2-254.18-71.38l174.57-175.29ZM523,463c40.65-9.45,45.87-67.55,7.68-84.18-43.67-19.01-82.95,33.18-52.66,69.66,6.12,7.36,13.59,10.82,21.84,15.16l.56,93.44c3.1,13.03,26.14,9.85,22.56-5.08,6.57-.63,16.79,1.62,22.53-1.97,8.17-5.1,4.29-21.03-4.03-21.03h-18.5v-13h24.5c7.52,0,10.21-15.78,4.47-20.47-.68-.56-5.92-2.53-6.47-2.53h-21c-.3,0-.77,1.27-1.5,1v-31Z"/>
      <polygon class="cls-1" points="248 738 213 738 230.5 682.99 248 738"/>
      <path class="cls-1" d="M469.99,745c.13,5.48.46,9.79-1.51,14.98-6.04,15.87-41.46,22.32-37.24-1.25,2.33-13.04,28.94-9.54,38.75-13.73Z"/>
      <path d="M523,463v31c.73.27,1.2-1,1.5-1h21c.56,0,5.79,1.97,6.47,2.53,5.74,4.7,3.05,20.47-4.47,20.47h-24.5v13h18.5c8.31,0,12.19,15.93,4.03,21.03-5.74,3.58-15.96,1.34-22.53,1.97,3.58,14.93-19.46,18.1-22.56,5.08l-.56-93.44c-8.25-4.34-15.73-7.79-21.84-15.16-30.29-36.47,8.99-88.67,52.66-69.66,38.19,16.63,32.97,74.73-7.68,84.18ZM507.74,397.24c-23.37,3.97-23.37,40.55,0,44.52,35.16,5.97,34.94-50.46,0-44.52Z"/>
      <path class="cls-1" d="M507.74,397.24c34.94-5.94,35.16,50.5,0,44.52-23.37-3.97-23.37-40.55,0-44.52Z"/>
    </g>
  </g>
</svg>