<?xml version="1.0" encoding="UTF-8"?>
<svg id="Layer_2" data-name="Layer 2" xmlns="http://www.w3.org/2000/svg" viewBox="0 0 1536 1024">
  <defs>
    <style>
      .cls-1 {
        fill: #fff;
      }
    </style>
  </defs>
  <g id="Layer_1-2" data-name="Layer 1">
    <g>
      <path class="cls-1" d="M1536,0v1024H0V0h1536ZM483.79,331.29c-137.99,5.78-203.69,165.25-124.61,274.02,72.03,99.07,216.14,88.9,274.34-18.29,61.96-114.12-15.41-261.35-149.73-255.73ZM1157.51,400.53c-15.36-.41-15.67,19.77-4.8,22.25,18.46,4.22,20.71-21.83,4.8-22.25ZM714,512h22l7.1-23.9,41.01.49,7.89,23.41h22l-39.46-109.07-23.43.19-37.11,108.88ZM842,403h-19v109h20c-1.21-12.62-4.79-27,7.5-34.98l21.5,34.98h24l-31.01-48.52,29.01-31.48h-24.5l-27.5,31v-60ZM1080,403h-18.5c-2.27,1.39-.5,2.15-.5,2.5v106.5h20c.27-.73-1-1.2-1-1.5v-40c0-2.65,2.07-12.07,3.26-14.74,4.23-9.47,18.25-12.21,25.29-4.81.65.68,3.45,5.2,3.45,5.55v55.5h21c.27-.73-1-1.2-1-1.5v-50c0-26.33-22.91-38.27-45.5-25.5l-6.5,8v-40ZM971,512v-55.5c0-3.1-3.01-11.34-4.81-14.19-13.75-21.89-62.56-15.84-63.19,13.69h20c.74-14.52,25.44-15.31,27.77-1.26,1.11,6.69-.88,5.82-6.15,7.37-15.59,4.59-41.09,3.09-44.37,24.62-3.77,24.73,28.23,34.66,45.69,21.7l6.05-6.43v9.99h19.01ZM1048,454c-3.02-36.42-70.24-31.37-63.76,6.26,1.46,8.51,9.26,13.66,16.81,16.19,7.93,2.66,37.82,2.98,29.15,17.25-5.39,8.88-28.75,7.45-28.2-5.71h-20c2.59,24.89,32.4,31.46,52.28,22.78s22.15-35.47,0-43.55c-7.41-2.7-26.99-3.1-30.75-8.25-8-10.96,12.71-18.23,23.21-11.21,2.2,1.47,4.16,6.23,4.77,6.23h16.5ZM1251,484h-19c.26,10.08-10.28,14.41-19.06,12.55-16.28-3.44-17.73-33.95-8.47-44.58,8.31-9.54,27.27-5.7,27.53,8.03h19c-1.41-36.21-55-41.82-68.49-9.99-6.71,15.83-4.95,39.29,6.46,52.51,18.6,21.54,61.62,12.45,62.02-18.52ZM1167,432h-20v80h20v-80ZM740,557h-9v47h9v-47ZM783,588l-20.43-30.07-8.57-.93v47h9v-31l20.2,30.79,8.8.21v-47h-9v31ZM837,557h-35v8.01s13,0,13,0v39h9v-39h13.01s0-8,0-8ZM878,557h-30v47h30v-7h-21v-13h18v-7h-18v-12h19.5l1.5-8ZM899,557h-9v47h28v-7h-19v-40ZM939,557h-10s0,47,0,47h28v-7h-17.5c-2.27-1.39-.5-2.15-.5-2.5v-37.5ZM978,557h-9v45.5c0,.21-1.49,1.13-1,1.49h10s0-46.99,0-46.99ZM1030,579h-17v7.01s9,0,9,0c.62,10.83-13.84,15.57-19.84,6.33-9.8-15.09,4.16-40.82,18.54-21.32l9.29-.03c-3.41-16.98-28.34-19.27-36.53-5.02-6.44,11.2-4.67,30.97,8.29,36.77,17.77,7.96,31.32-5.68,28.24-23.74ZM1072,557h-29v47h30v-7h-21v-13h18v-7h-18v-12h20v-8ZM1114,588l-20.51-29.99-8.49-1.01v47h9v-29.5c0-.23-1.9-1.34-.49-1.51h1.47s18.53,30,18.53,30l8.49,1.01v-47h-8v31ZM1175,572.99c-2.6-12.72-11.75-17.97-24.44-15.93-20.39,3.28-21.6,43.74,1.38,47.49,10.71,1.75,21.91-3.74,22.06-15.55l-8.89.11c-.43,7.93-8.91,9.97-15.03,6.31-7.53-4.51-7.28-23.37-1-28.85s15.42-1.73,16.03,6.31l9.89.1ZM1216,557h-29v47h30v-7h-21v-13h18v-7h-18v-12h20v-8Z"/>
      <path d="M483.79,331.29c134.31-5.62,211.69,141.61,149.73,255.73-58.2,107.19-202.31,117.36-274.34,18.29-79.08-108.77-13.38-268.24,124.61-274.02ZM616.99,585c30.5-55.43,30.6-123.55-6.77-175.72-90.34-126.14-284.95-46.72-268.09,109.09,2.52,23.3,10.77,45.26,21.88,65.63l3.02-1.47,114.45-119.55.02-8.98c-3.58,2.7-16.09,13.88-19.78,12.86-2.48-.68-2.73-2.69-2.33-4.88.98-5.41,10.95-29.73,10.43-32.36-2.9-4.23-27.66-19.01-27.81-22.08-.04-.82.64-2.72,1.24-3.3,2.69-2.67,28.37-.94,33.81-.67l9.94-35.82c1.08-1.98,4.97-1.93,6.01,0l9.94,35.82,33.39.34c2.13,1.94,1.75,4.67-.4,6.51l-25.79,19.26,10.42,35.3c-.58.76-1.35,1.64-2.28,1.88-4.13,1.1-16.36-10.66-20.78-12.86l.26,8.74,119.23,122.25ZM489.5,478.02l-115.43,120.48c32.93,43.41,86.74,66.66,141.14,57.21,36.25-6.3,70.02-27.63,91.55-57.22l-117.26-120.47Z"/>
      <path d="M714,512l37.11-108.88,23.43-.19,39.46,109.07h-22l-7.89-23.41-41.01-.49-7.1,23.9h-22ZM779,471l-15.5-45.01-14.5,45.01h30Z"/>
      <path d="M1080,403v40l6.5-8c22.58-12.77,45.5-.84,45.5,25.5v50c0,.3,1.27.77,1,1.5h-21v-55.5c0-.35-2.8-4.87-3.45-5.55-7.04-7.4-21.06-4.66-25.29,4.81-1.19,2.67-3.26,12.09-3.26,14.74v40c0,.3,1.27.77,1,1.5h-20v-106.5c0-.35-1.77-1.11.5-2.5h18.5Z"/>
      <path d="M842,403v60l27.5-31h24.5l-29.01,31.48,31.01,48.52h-24l-21.5-34.98c-12.29,7.98-8.71,22.36-7.5,34.98h-20v-109h19Z"/>
      <path d="M971,512h-19v-9.99s-6.06,6.43-6.06,6.43c-17.47,12.96-49.46,3.03-45.69-21.7,3.28-21.52,28.79-20.03,44.37-24.62,5.27-1.55,7.25-.68,6.15-7.37-2.33-14.06-27.03-13.26-27.77,1.26h-20c.64-29.54,49.44-35.58,63.19-13.69,1.79,2.85,4.81,11.09,4.81,14.19v55.5ZM950.99,474c-6.71,2.35-14.28,2.37-21.01,4.48-21.45,6.73-4.38,29.62,13.95,16.95,7.65-5.29,7.47-12.9,7.06-21.43Z"/>
      <path d="M1048,454h-16.5c-.61,0-2.57-4.76-4.77-6.23-10.49-7.02-31.2.25-23.21,11.21,3.76,5.15,23.34,5.54,30.75,8.25,22.15,8.08,20.4,34.64,0,43.55s-49.68,2.12-52.28-22.78h20c-.55,13.15,22.8,14.59,28.2,5.71,8.66-14.27-21.22-14.59-29.15-17.25-7.55-2.53-15.34-7.69-16.81-16.19-6.48-37.63,60.74-42.68,63.76-6.26Z"/>
      <path d="M1251,484c-.4,30.98-43.42,40.06-62.02,18.52-11.42-13.22-13.17-36.68-6.46-52.51,13.49-31.83,67.08-26.22,68.49,9.99h-19c-.26-13.73-19.23-17.57-27.53-8.03-9.26,10.63-7.81,41.14,8.47,44.58,8.78,1.86,19.32-2.47,19.06-12.55h19Z"/>
      <rect x="1147" y="432" width="20" height="80"/>
      <polygon points="783 588 783 557 792 557 792 604 783.2 603.79 763 573 763 604 754 604 754 557 762.57 557.93 783 588"/>
      <path d="M1114,588v-31h8v47l-8.49-1.01-18.53-29.98h-1.47c-1.41.15.49,1.26.49,1.49v29.5h-9v-47l8.49,1.01,20.51,29.99Z"/>
      <path d="M1030,579c3.08,18.06-10.47,31.7-28.24,23.74-12.96-5.8-14.73-25.57-8.29-36.77,8.19-14.25,33.11-11.96,36.53,5.02l-9.29.03c-14.38-19.5-28.34,6.23-18.54,21.32,6,9.24,20.46,4.5,19.84-6.33h-9.01s0-7,0-7h17Z"/>
      <polygon points="878 557 876.5 565 857 565 857 577 875 577 875 584 857 584 857 597 878 597 878 604 848 604 848 557 878 557"/>
      <polygon points="1072 557 1072 565 1052 565 1052 577 1070 577 1070 584 1052 584 1052 597 1073 597 1073 604 1043 604 1043 557 1072 557"/>
      <polygon points="1216 557 1216 565 1196 565 1196 577 1214 577 1214 584 1196 584 1196 597 1217 597 1217 604 1187 604 1187 557 1216 557"/>
      <path d="M1175,572.99l-9.89-.1c-.61-8.04-9.88-11.67-16.03-6.31s-6.53,24.34,1,28.85c6.12,3.66,14.6,1.61,15.03-6.31l8.89-.11c-.15,11.81-11.35,17.3-22.06,15.55-22.99-3.75-21.77-44.21-1.38-47.49,12.69-2.04,21.83,3.21,24.44,15.93Z"/>
      <polygon points="837 557 837.01 565.01 824 565 824 604 815 604 815 565 801.99 565.01 802 557 837 557"/>
      <path d="M939,557v37.5c0,.35-1.77,1.11.5,2.5h17.5v7h-28v-46.99s10,0,10,0Z"/>
      <polygon points="899 557 899 597 918 597 918 604 890 604 890 557 899 557"/>
      <path d="M978,557v47h-10c-.5-.37,1-1.29,1-1.5v-45.5h9Z"/>
      <rect x="731" y="557" width="9" height="47"/>
      <path d="M1157.51,400.53c15.91.42,13.65,26.47-4.8,22.25-10.87-2.48-10.56-22.66,4.8-22.25Z"/>
      <path class="cls-1" d="M616.99,585l-119.23-122.25-.26-8.74c4.42,2.2,16.66,13.96,20.78,12.86.93-.25,1.7-1.12,2.28-1.88l-10.42-35.3,25.79-19.26c2.15-1.84,2.53-4.57.4-6.51l-33.39-.34-9.94-35.82c-1.04-1.93-4.93-1.98-6.01,0l-9.94,35.82c-5.43-.27-31.11-2-33.81.67-.59.59-1.28,2.49-1.24,3.3.15,3.07,24.91,17.84,27.81,22.08.52,2.63-9.45,26.95-10.43,32.36-.4,2.19-.16,4.2,2.33,4.88,3.7,1.02,16.2-10.16,19.78-12.86l-.02,8.98-114.45,119.55-3.02,1.47c-11.12-20.36-19.36-42.32-21.88-65.63-16.85-155.81,177.75-235.24,268.09-109.09,37.36,52.17,37.26,120.29,6.77,175.72Z"/>
      <path class="cls-1" d="M489.5,478.02l117.26,120.47c-21.53,29.59-55.3,50.92-91.55,57.22-54.4,9.45-108.21-13.8-141.14-57.21l115.43-120.48ZM497,573c42.11-11.02,24.08-76.9-18.37-60.87-27.87,10.53-24.86,53.51,3.43,61.48l.46,66.37c3.07,4.24,8.23,6.64,12.56,2.6,1.73-1.61,1.91-4.88,3.54-5.45,4.64-1.63,13.53,2.71,16.62-4.38,4.78-10.96-10.06-11.81-17.25-10.74l-.99-11h16.5c1.96,0,5.27-4.38,5.49-6.59.25-2.45-2.68-8.41-4.49-8.41h-17.5v-23Z"/>
      <polygon class="cls-1" points="779 471 749 471 763.5 425.99 779 471"/>
      <path class="cls-1" d="M950.99,474c.41,8.54.59,16.14-7.06,21.43-18.33,12.67-35.41-10.22-13.95-16.95,6.73-2.11,14.3-2.13,21.01-4.48Z"/>
      <path d="M497,573v23h17.5c1.81,0,4.74,5.95,4.49,8.41-.22,2.21-3.54,6.59-5.49,6.59h-16.5l.99,11c7.19-1.07,22.03-.22,17.25,10.74-3.09,7.09-11.97,2.75-16.62,4.38-1.63.57-1.81,3.84-3.54,5.45-4.34,4.03-9.5,1.63-12.56-2.6l-.46-66.37c-28.29-7.97-31.31-50.95-3.43-61.48,42.45-16.03,60.48,49.85,18.37,60.87ZM479.35,530.35c-13.31,14.25,5.28,36.97,20.16,24.66,16.78-13.88-5.25-40.63-20.16-24.66Z"/>
      <path class="cls-1" d="M479.35,530.35c14.91-15.97,36.94,10.78,20.16,24.66-14.88,12.31-33.47-10.41-20.16-24.66Z"/>
    </g>
  </g>
</svg>