<?xml version="1.0" encoding="UTF-8"?>
<svg id="Layer_2" data-name="Layer 2" xmlns="http://www.w3.org/2000/svg" viewBox="0 0 1536 1024">
  <defs>
    <style>
      .cls-1 {
        fill: #fff;
      }
    </style>
  </defs>
  <g id="Layer_1-2" data-name="Layer 1">
    <g>
      <path d="M1536,0v1024H0V0h1536ZM235.54,235.64c-18.78-.98-34.88,10.38-36.57,29.83l.03,492.04c3.94,20.31,16.59,28.31,36.46,29.54h1069.08c17.43-1.38,31.63-13.44,32.51-31.51v-490.09c-1.62-14.2-12.9-26.32-26.8-29.2-358.03-2.51-716.63-1.27-1074.7-.62Z"/>
      <path class="cls-1" d="M235.54,235.64c358.07-.65,716.68-1.89,1074.7.62,13.91,2.88,25.18,14.99,26.8,29.2v490.09c-.87,18.06-15.08,30.12-32.51,31.49H235.45c-19.87-1.22-32.52-9.22-36.46-29.53l-.03-492.04c1.69-19.45,17.79-30.81,36.57-29.83ZM389.35,391.35c-81.88,79.5-57.69,223.77,46.98,269.82,120.7,53.11,236.79-62.93,212.21-185.21-23.89-118.84-170.23-170.99-259.18-84.62ZM1152.79,416.22c-16.82,1.74-10.47,27.51,6.21,20.27,11.05-4.8,6.45-21.58-6.21-20.27ZM815,526l-37.5-106c-1.36-1.64-22.72-1.58-24.02-.01l-35.98,106.02h21.5l6.98-22.52,39.06-.02,6.96,22.54h23ZM841,419l-17.54.25-1.46,1.25v105.5h19v-24.5c0-.5,5.7-6.57,6.56-7.44s.89-1.43,2.42-1.06l22.52,32.99h22.5l-31.92-45.65,29.92-33.35h-25l-27,32v-60ZM1078,419h-19v107h19v-51.5c0-.62,2.14-4.33,2.76-5.24,6.53-9.75,23.05-9.93,28.15,1.34.44.97,2.09,6.31,2.09,6.91v47c0,.3-1.27.77-1,1.5h20v-54.5c0-20.85-31.14-35.48-46.54-19.54l-5.46,8.04v-41ZM970,526v-55.5c0-1.74-2.7-9.35-3.79-11.21-13-22.08-62.32-18.46-63.21,11.71h19c.29,0,.48-3.3,2.15-5.35,7.88-9.65,31.22-3.82,25.35,8.36-2.68,5.57-31.44,5.44-40.97,13.02-24.76,19.67,7.56,55.31,35.41,35.41l7.06-6.42-1,9.99h20ZM1047,469c-2.02-24.26-38.4-30.12-54.91-17.41-9.03,6.95-13,20.51-6.52,30.34,9.73,14.75,34.96,7.98,40.89,17.11,7.99,12.31-16.44,19.39-25.33,7.3-.81-1.1-.94-3.34-1.12-3.34h-20c2.12,38.79,80.53,29.73,66.29-8.79-7.15-19.33-36.26-11.79-42.87-20.13-9.05-11.42,13.78-20.49,22.6-9.6,1.31,1.61,1.73,4.52,1.98,4.52h19ZM1248,474c-.5-22.99-25.11-32.69-45.22-27.72-35.81,8.83-37.58,69.43-2.58,80.03,20.57,6.23,46.72-3.59,47.8-27.3h-19c-3.07,15.09-24.29,16.31-30.82,3.32-4.28-8.52-3.65-28.79,3.17-35.97,8.08-8.52,26.09-4.83,27.65,7.65h19ZM1164,447h-20v79h20c-.8-.97,0-1.89,0-2.5v-76.5ZM1029,591h-20v7.01s12,0,12,0c-2.97,15.01-22.54,12.79-24.04-2.45-1.77-17.98,12.78-27.36,23.76-11.54l8.26-.5c-8.04-24.97-41.55-17.73-42,8.04-.58,33.13,46.12,32.11,42.03-.55ZM1172,584.99c-8.86-29.19-44.71-18.72-40.89,12.39,2.91,23.68,36.91,25.2,40.89,1.62-11.05-3.01-9.02,5.49-15.78,7.74-19.74,6.57-22.45-30.18-3.72-30.23,8.83-.02,9.15,7.67,11.13,8.36l8.37.12ZM741,569h-8v46h8v-46ZM754,569v46h9v-31l20.2,30.79,8.8.21v-46h-8v30c-2.4.53-1.62-.41-2.23-1.3-6.23-9.1-11.65-18.86-18.2-27.77l-9.57-.93ZM838,569h-35l-.06,7.53,13.06.47v38h9v-38h13.01s0-8,0-8ZM878,569h-30v46h30v-8h-21v-11h17.5c2.24-1.79,2.34-6.06,0-8h-17.5v-11h19.5l1.5-8ZM898,569h-8v44.5c0,.3-1.27.77-1,1.5h29v-8h-20v-38ZM937,569h-9v46h29v-8h-18.5c-.3,0-.77,1.27-1.5,1v-39ZM976,569h-9v46h9v-46ZM1070,569h-29v46h29v-8h-21v-11h19v-8h-19v-11h19.5l1.34-1.65.16-6.35ZM1082,569v46h9v-28.5c0-.35-3.43-4.12.46-1.46,4.5,4.47,15.82,27.2,19.55,29.45,2.16,1.3,6.43.16,9,.5v-46h-9v30l-20.2-29.79-8.8-.21ZM1212,569h-29v46h29v-8h-21c1.56-3.43,1.56-7.57,0-11h19v-8h-19c1.56-3.43,1.56-7.57,0-11h21v-8Z"/>
      <path d="M389.35,391.35c88.96-86.37,235.29-34.23,259.18,84.62,24.58,122.27-91.51,238.32-212.21,185.21-104.66-46.06-128.85-190.33-46.98-269.82ZM613.99,590c18.36-32.59,26.26-68.93,19.7-106.18-14.49-82.16-93.21-135.71-175.1-113.74-92.31,24.77-130.65,140.2-80.04,218.92,2.29.56,21.43-21.45,24.44-24.53,27.85-28.49,56.43-56.28,83.29-85.74l.63-3.11-1.38-5.61-16.22,12.87-1.6.02c-2.39-1.17-2.85-2.58-2.52-5.13.71-5.58,10.54-27.74,9.7-31.08l-24.86-18.19-1.03-3.94c.85-5.83,15.42-3.22,20.56-3.52,4.11-.24,8.35-1.39,12.52-1.48l8.19-31.81c1.38-3.09,5.25-4.75,8.16-2.66l10.73,34.78c3.52-.29,6.89.97,10.32,1.18,4.65.27,30.17-2.72,20.58,7.5l-24.11,17.14c.12,2.79,1.09,5.42,1.81,8.08,1.77,6.6,7.27,17.38,8.06,23,.33,2.3.26,5.47-2.5,6.14-3.71.9-14.11-11.31-17.81-12.89-2.65-1.13-1.52,7.75-.97,8.97.26.58,7.19,8.13,8.45,9.55,16.73,18.62,37.22,37.98,55,56,15.14,15.34,30.44,30.58,46.01,45.47ZM495.5,494.02l-107.48,109.48c47.11,61.3,136.9,72.5,196,21.01,2.88-2.51,19.31-18.42,18.83-20.87l-107.35-109.63Z"/>
      <path d="M815,526h-23l-6.96-22.54-39.06.02-6.98,22.52h-21.5l35.98-106.02c1.3-1.57,22.66-1.63,24.02.01l37.5,106ZM751,485h28l-13.51-43.01c-1.99-.41-1.46.73-1.94,2.01-5.05,13.25-7.66,27.67-12.55,41Z"/>
      <path d="M1078,419v41l5.46-8.04c15.39-15.95,46.54-1.31,46.54,19.54v54.5h-20c-.27-.73,1-1.2,1-1.5v-47c0-.6-1.65-5.94-2.09-6.91-5.1-11.26-21.62-11.09-28.15-1.34-.61.92-2.76,4.63-2.76,5.24v51.5h-19v-107h19Z"/>
      <path d="M841,419v60l27-32h25l-29.92,33.35,31.92,45.65h-22.5l-22.52-32.99c-1.53-.37-1.6.23-2.42,1.06s-6.56,6.94-6.56,7.44v24.5h-19v-105.5l1.46-1.25,17.54-.25Z"/>
      <path d="M970,526h-20l1-9.99-7.06,6.42c-27.85,19.9-60.17-15.74-35.41-35.41,9.54-7.58,38.29-7.45,40.97-13.02,5.88-12.18-17.47-18.01-25.35-8.36-1.67,2.05-1.86,5.35-2.15,5.35h-19c.89-30.17,50.21-33.79,63.21-11.71,1.09,1.86,3.79,9.47,3.79,11.21v55.5ZM949.99,489c-8.13,1.68-35.97,4.57-28.86,18.36,5.44,10.56,24.62,3.62,27.91-5.82,1.48-4.23.9-8.21.95-12.54Z"/>
      <path d="M1047,469h-19c-.25,0-.67-2.9-1.98-4.52-8.82-10.89-31.65-1.82-22.6,9.6,6.61,8.34,35.73.8,42.87,20.13,14.24,38.53-64.17,47.59-66.29,8.79h20c.18,0,.31,2.24,1.12,3.34,8.89,12.09,33.32,5.01,25.33-7.3-5.92-9.13-31.15-2.35-40.89-17.11-6.48-9.83-2.5-23.39,6.52-30.34,16.51-12.71,52.89-6.85,54.91,17.41Z"/>
      <path d="M1248,474h-19c-1.56-12.48-19.57-16.17-27.65-7.65-6.81,7.18-7.45,27.45-3.17,35.97,6.53,12.99,27.74,11.77,30.82-3.32h19c-1.09,23.72-27.23,33.53-47.8,27.3-35-10.6-33.23-71.19,2.58-80.03,20.11-4.96,44.73,4.73,45.22,27.72Z"/>
      <path d="M1164,447v76.5c0,.61-.8,1.53,0,2.5h-20v-79h20Z"/>
      <path d="M1082,569l8.8.21,20.2,29.79v-30h9v46c-2.56-.35-6.83.8-9-.5-3.73-2.25-15.05-24.98-19.55-29.45-3.89-2.66-.46,1.11-.46,1.46v28.5h-9v-46Z"/>
      <path d="M754,569l9.57.93c6.55,8.91,11.96,18.66,18.2,27.77.62.9-.17,1.83,2.23,1.3v-30h8v46l-8.8-.21-20.2-30.79v31h-9v-46Z"/>
      <path d="M1029,591c4.09,32.66-42.61,33.68-42.03.55.45-25.77,33.96-33.01,42-8.04l-8.26.5c-10.98-15.83-25.53-6.44-23.76,11.54,1.5,15.24,21.07,17.47,24.04,2.45h-12s0-7.01,0-7.01h20Z"/>
      <path d="M878,569l-1.5,8h-19.5v11h17.5c2.34,1.94,2.24,6.21,0,8h-17.5v11h21v8h-30v-46h30Z"/>
      <path d="M1172,584.99l-8.37-.12c-1.98-.69-2.3-8.38-11.13-8.36-18.73.05-16.02,36.8,3.72,30.23,6.75-2.25,4.73-10.74,15.78-7.74-3.97,23.58-37.98,22.06-40.89-1.62-3.82-31.11,32.02-41.58,40.89-12.39Z"/>
      <path d="M1212,569v8h-21c1.56,3.43,1.56,7.57,0,11h19v8h-19c1.56,3.43,1.56,7.57,0,11h21v8h-29v-46h29Z"/>
      <polygon points="1070 569 1069.84 575.35 1068.5 577 1049 577 1049 588 1068 588 1068 596 1049 596 1049 607 1070 607 1070 615 1041 615 1041 569 1070 569"/>
      <polygon points="838 569 838.01 577.01 825 577 825 615 816 615 816 577 802.94 576.53 803 569 838 569"/>
      <path d="M937,569v39c.73.27,1.2-1,1.5-1h18.5v8h-29v-46h9Z"/>
      <path d="M898,569v38h20v8h-29c-.27-.73,1-1.2,1-1.5v-44.5h8Z"/>
      <rect x="967" y="569" width="9" height="46"/>
      <path d="M1152.79,416.22c12.65-1.31,17.25,15.47,6.21,20.27-16.67,7.24-23.03-18.53-6.21-20.27Z"/>
      <rect x="733" y="569" width="8" height="46"/>
      <path class="cls-1" d="M613.99,590c-15.57-14.89-30.88-30.13-46.01-45.47-17.78-18.02-38.27-37.38-55-56-1.27-1.41-8.19-8.96-8.45-9.55-.55-1.22-1.68-10.1.97-8.97,3.71,1.58,14.1,13.79,17.81,12.89,2.76-.67,2.83-3.84,2.5-6.14-.8-5.62-6.3-16.39-8.06-23-.71-2.66-1.69-5.29-1.81-8.08l24.11-17.14c9.59-10.22-15.93-7.23-20.58-7.5-3.43-.2-6.81-1.46-10.32-1.18l-10.73-34.78c-2.91-2.08-6.78-.42-8.16,2.66l-8.19,31.81c-4.17.09-8.41,1.25-12.52,1.48-5.14.3-19.72-2.31-20.56,3.52l1.03,3.94,24.86,18.19c.85,3.34-8.98,25.5-9.7,31.08-.33,2.54.13,3.96,2.52,5.13l1.6-.02,16.22-12.87,1.38,5.61-.63,3.11c-26.86,29.46-55.43,57.26-83.29,85.74-3.01,3.08-22.15,25.09-24.44,24.53-50.61-78.72-12.27-194.15,80.04-218.92,81.89-21.98,160.62,31.57,175.1,113.74,6.57,37.25-1.34,73.59-19.7,106.18Z"/>
      <path class="cls-1" d="M495.5,494.02l107.35,109.63c.48,2.45-15.95,18.36-18.83,20.87-59.1,51.49-148.89,40.28-196-21.01l107.48-109.48ZM503,586c10.27-1.57,20.33-13.27,22.35-23.15,6.7-32.72-34.02-53.75-54.76-25.76-13.22,17.83-3.28,42.16,16.45,49.58,1.22,18.63-1.76,39.53-.09,57.88.63,6.91,4.58,8.79,11.33,7.23,3.8-.87,4.46-4.56,5.42-4.8,4.45-1.11,12.56,2.38,14.87-4.93,3.11-9.87-8.59-11.07-15.57-10.04v-11.01c5.87-.7,19.09,3.82,20.83-4.73,2.28-11.22-13.69-10.61-20.82-10.26v-20Z"/>
      <path class="cls-1" d="M751,485c4.88-13.33,7.5-27.75,12.55-41,.48-1.27-.05-2.41,1.94-2.01l13.51,43.01h-28Z"/>
      <path class="cls-1" d="M949.99,489c-.05,4.33.53,8.31-.95,12.54-3.3,9.44-22.47,16.38-27.91,5.82-7.11-13.8,20.74-16.68,28.86-18.36Z"/>
      <path d="M503,586v20c7.13-.34,23.1-.96,20.82,10.26-1.74,8.55-14.96,4.03-20.83,4.73v11.01c6.98-1.03,18.68.17,15.57,10.04-2.31,7.32-10.42,3.83-14.87,4.93-.96.24-1.62,3.93-5.42,4.8-6.75,1.56-10.7-.32-11.33-7.23-1.67-18.35,1.31-39.25.09-57.88-19.73-7.42-29.67-31.75-16.45-49.58,20.75-27.98,61.47-6.95,54.76,25.76-2.02,9.88-12.08,21.58-22.35,23.15ZM491.73,540.23c-15.01,3.05-15.51,27.67,0,30.53,24.89,4.59,24.07-35.43,0-30.53Z"/>
      <path class="cls-1" d="M491.73,540.23c24.07-4.9,24.89,35.12,0,30.53-15.51-2.86-15.01-27.48,0-30.53Z"/>
    </g>
  </g>
</svg>