<?xml version="1.0" encoding="UTF-8"?>
<svg id="Layer_2" data-name="Layer 2" xmlns="http://www.w3.org/2000/svg" viewBox="0 0 1024 1024">
  <defs>
    <style>
      .cls-1 {
        fill: #fff;
      }
    </style>
  </defs>
  <g id="Layer_1-2" data-name="Layer 1">
    <g>
      <path d="M1024,0v1024H0V0h1024ZM496.79,124.29c-170.53,9.8-280.88,189.48-209.97,346.38,73.77,163.24,294.16,196.81,411.69,60.34,142.13-165.05,15.76-419.21-201.72-406.72ZM722.31,655.31c-4.92,5.31-3.82,23.09,6.25,24.63,14.49,2.22,21.04-2.47,19.43-17.44-1.34-12.4-19.58-13.78-25.68-7.19ZM168,791h26.5c5.03-6.97,5.82-19.46,9.73-26.27.84-1.47,1.36-2.56,3.29-2.73l49.54.47,11.44,28.53h25l-47.64-134.86-28.4-.2-49.46,135.07ZM397,691h-30.5l-33.98,38.02-2.03-.02c-1.12-.69.51-1.14.51-1.5v-70l-1.5-1.5h-23l-1.5,1.5v132l1.5,1.5h23l1.5-1.5v-29c0-.37-1.01-.52-.12-2,.79-1.32,10.68-11.72,11.58-11.5l28.04,44h29.5l-38.75-60.51,35.75-39.49ZM637,656h-25v133.5l1.5,1.5h22l1.5-1.5v-62c0-.6,3.46-7.79,4.17-8.83,7.56-11.05,27.13-11.51,34.04.62.62,1.09,2.79,6.45,2.79,7.21v63l1.5,1.5h22l1.5-1.5v-71c0-3.66-5.48-14.77-8.02-17.98-14.98-18.88-42.82-17.09-57.98.48v-45ZM595,718c-.97-42.04-78.63-39.72-83.74-2.24-5.2,38.13,30.18,29.1,52.3,36.19,15.26,4.89,9.16,19.87-6.02,21.09-10.97.88-21.87-.78-24.54-13.04h-23.5c-4.59,0,2.85,16.86,4.68,19.32,19.1,25.76,95.43,16.09,82.34-30.34-6.53-23.14-37-16.75-53.5-22.5-13.42-4.67-6.53-18.23,6.5-19.48,10.3-.98,17.28.72,20.99,10.99h24.5ZM855,726c-1.79-40.42-58.26-51.69-81.98-22.48-18.67,23-15.22,74.75,15.7,86.25,25.1,9.34,58.94-.5,65.81-28.74.54-2.2,1.89-6.67-.03-8.04h-23.5c-2.06,14.49-12.67,21.62-27.06,18.56-16.5-3.52-18.2-28.54-15.69-41.8,2.7-14.26,11.22-22.39,26.25-20.75,10.35,1.13,12.93,8.9,17,17h23.5ZM496,791v-74.5c0-1.65-3.68-9.29-4.81-11.19-16.91-28.62-75.73-22.01-80.79,13.64l1.24,1.91,22.2.97c4.15-21.28,42.28-18.16,37.21,4.73-25.44,4.34-70.63,2.5-67.04,39.93,2.95,30.72,49.63,32.72,66.98,13.51.48,3.57-1.35,8.36,1.51,11h23.5ZM722,691v98.5l1.5,1.5h22l1.5-1.5v-97l-1.5-1.5h-23.5ZM576,870.5c.71-4.26-.51-10.03,0-14.5h-25v8h14c1.59,17.01-22.01,19.48-26.71,4.21-2.75-8.91-1.82-26.64,9.44-28.98,7.39-1.54,14.13.58,16.94,7.81l10.34-.05c-2.41-20.5-33.83-22.12-44.44-6.93-6.28,9-6.57,28.19-.39,37.27,10.22,15.03,42.73,11.88,45.83-6.83ZM743.14,849.86c9.6.73,13.46,1.14,8.27-8.77-7.29-13.92-30.02-14.69-39.94-3.13-9.1,10.62-8.83,34.38,2.51,43.55,13.24,10.71,40.52,4.97,39.6-14.59l-9.64-.5c-1.46,8.97-9.26,13.37-17.97,11.09-10.71-2.81-10.5-22.25-7.45-30.51,4.5-12.18,23.12-10.55,24.62,2.85ZM218,831h-11v55c3.57-.45,8.36,1.35,11-1.5v-53.5ZM235,831v53.5c1.27,1.9,3.45,1.56,5.5,1.56,1.29,0,2.58.06,3.84-.22l1.66-1.34v-34c0-.23-1.9-1.34-.49-1.51h1.47s23.02,36.5,23.02,36.5c1.84,1.11,9.45,1.18,10.99-1v-53.5h-10v37l-24.2-36.79-11.8-.21ZM336,831h-40v9h14v44.5c2.64,2.85,7.43,1.05,11,1.5v-44.5c1.85-3.23,14.02-.51,15.01-1.49v-9.01ZM386,831h-36v53.5l1.5,1.5h34c2.2-1.31,2.19-8.43.51-9.58-.72-.6-1.26.58-1.51.58h-23.5v-15h23v-9h-23v-13h25v-9ZM413,831h-11v53.5l1.5,1.5h31c2.36-2.15,2.36-7.85,0-10h-19c-.25,0-.59.81-1,.78l-1.5-1.28v-44.5ZM462,831h-11v55h32.5c2.36-2.15,2.36-7.85,0-10h-18c-.5,0-2.1,1.58-3.5,1v-46ZM510,831h-11v53.5c2.64,2.85,7.43,1.05,11,1.5v-55ZM602,840h24.5c2.33-2,2.33-7,0-9h-35.5v53.5l1.5,1.5h35.5v-9h-24.5c-3.11-3.76-.84-10.26-1.5-15h23l-.14-7.36-1.5-1.5-20.39.42-.97-13.56ZM679,867l-23.43-35.07c-2.15-1.55-10.43-1.81-12.57.57v52c1.27,1.9,3.45,1.56,5.5,1.56,1.29,0,2.58.06,3.84-.22l1.66-1.34v-36.5l24.43,37.07c2.19,1.57,8.67,1.74,10.57-.57v-53.5h-10v36ZM806,831h-36v55h35.5c2.2-1.31,2.19-8.43.51-9.58-.72-.6-1.26.58-1.51.58h-23.5v-15h23c-.28-3.02,1.11-6.87-1.5-9h-21.5v-13h25v-9Z"/>
      <path class="cls-1" d="M637,656v45c15.16-17.57,43-19.35,57.98-.48,2.54,3.2,8.02,14.32,8.02,17.98v71l-1.5,1.5h-22l-1.5-1.5v-63c0-.76-2.16-6.12-2.79-7.21-6.91-12.13-26.49-11.67-34.04-.62-.71,1.04-4.17,8.23-4.17,8.83v62l-1.5,1.5h-22l-1.5-1.5v-133.5h25Z"/>
      <polygon class="cls-1" points="722 691 745.5 691 747 692.5 747 789.5 745.5 791 723.5 791 722 789.5 722 691"/>
      <path class="cls-1" d="M679,867v-36h10v53.5c-1.9,2.31-8.38,2.14-10.57.57l-24.43-37.07v36.5l-1.66,1.34c-1.27.28-2.56.22-3.84.22-2.05,0-4.23.33-5.5-1.56v-52c2.14-2.38,10.42-2.12,12.57-.57l23.43,35.07Z"/>
      <path class="cls-1" d="M235,831l11.8.21,24.2,36.79v-37h10v53.5c-1.54,2.18-9.15,2.1-10.99,1l-23.02-36.49h-1.47c-1.41.15.49,1.26.49,1.49v34l-1.66,1.34c-1.27.28-2.56.22-3.84.22-2.05,0-4.23.33-5.5-1.56v-53.5Z"/>
      <path class="cls-1" d="M576,870.5c-3.1,18.71-35.61,21.86-45.83,6.83-6.18-9.08-5.89-28.27.39-37.27,10.61-15.19,42.03-13.57,44.44,6.93l-10.34.05c-2.81-7.23-9.55-9.35-16.94-7.81-11.26,2.34-12.19,20.07-9.44,28.98,4.7,15.27,28.3,12.79,26.71-4.21h-14v-8h25c-.51,4.47.71,10.24,0,14.5Z"/>
      <path class="cls-1" d="M602,840l.97,13.56,20.39-.42,1.5,1.5.14,7.36h-23c.66,4.74-1.61,11.24,1.5,15h24.5v9h-35.5l-1.5-1.5v-53.5h35.5c2.33,2,2.33,7,0,9h-24.5Z"/>
      <path class="cls-1" d="M386,831v9h-25v13h23v9h-23v15h23.5c.25,0,.8-1.18,1.51-.58,1.68,1.15,1.69,8.27-.51,9.58h-34l-1.5-1.5v-53.5h36Z"/>
      <path class="cls-1" d="M806,831v9h-25v13h21.5c2.61,2.13,1.22,5.98,1.5,9h-23v15h23.5c.25,0,.8-1.18,1.51-.58,1.68,1.15,1.69,8.27-.51,9.58h-35.5v-55h36Z"/>
      <path class="cls-1" d="M743.14,849.86c-1.5-13.4-20.13-15.03-24.62-2.85-3.05,8.26-3.26,27.7,7.45,30.51,8.71,2.28,16.51-2.12,17.97-11.09l9.64.5c.92,19.55-26.35,25.3-39.6,14.59-11.34-9.17-11.62-32.94-2.51-43.55,9.91-11.56,32.64-10.79,39.94,3.13,5.19,9.91,1.34,9.49-8.27,8.77Z"/>
      <path class="cls-1" d="M336,831v9.01c-.98.98-13.15-1.73-15,1.49v44.5c-3.57-.45-8.36,1.35-11-1.5v-44.5h-14v-9h40Z"/>
      <path class="cls-1" d="M413,831v44.5l1.5,1.28c.41.03.75-.78,1-.78h19c2.36,2.15,2.36,7.85,0,10h-31l-1.5-1.5v-53.5h11Z"/>
      <path class="cls-1" d="M462,831v46c1.4.58,3-1,3.5-1h18c2.36,2.15,2.36,7.85,0,10h-32.5v-55h11Z"/>
      <path class="cls-1" d="M722.31,655.31c6.1-6.59,24.35-5.21,25.68,7.19,1.61,14.96-4.95,19.66-19.43,17.44-10.07-1.54-11.17-19.32-6.25-24.63Z"/>
      <path class="cls-1" d="M218,831v53.5c-2.64,2.85-7.43,1.05-11,1.5v-55h11Z"/>
      <path class="cls-1" d="M510,831v55c-3.57-.45-8.36,1.35-11-1.5v-53.5h11Z"/>
      <polygon points="213 739 230.51 684.99 250 739 213 739"/>
      <path d="M472,744c3.7,17.73-11.04,31.63-28.39,29.89-10.52-1.06-19.87-10.62-11.62-20.4,6.48-7.67,30.17-7.9,40.02-9.49Z"/>
      <g>
        <path class="cls-1" d="M496.79,124.29c217.48-12.49,343.85,241.67,201.72,406.72-117.53,136.47-337.92,102.91-411.69-60.34-70.91-156.91,39.44-336.59,209.97-346.38ZM500,310.5v-14.5c-6.92.1-24.97,18.11-30.1,17.54-2.43-.27-4.23-1.88-4.72-4.26l15.69-46.59-38.86-27.19c-2.32-2.79-1.25-8,2.52-8.47l49.34-1.16,13.83-50.6c1.22-2.59,4.77-2.58,7.07-1.61l15.19,51.89c6.78,1.06,13.71.18,20.53.47,1.93.08,3.84.95,5.97,1.03,5,.2,22.35-1.1,25.11.88,3.66,2.62,2.17,5.92-.63,8.52-9.03,8.38-27.38,15.85-35.88,24.11-.69.67-1.68,1.06-1.93,2.15l15.69,46.04c.38,2.47-1.85,6.04-4.36,6.29-5.44-.22-26.9-19.67-29.94-19.03-2.39.5-1.76,10.62-1,12.98l175.95,176.05c.85.99,1.33,1.33,2.56.5,1.6-1.07,12.6-23.32,14.14-26.86,55.05-126.42-19.59-274.63-153.36-304.99-181.69-41.24-333.38,143.56-251.68,312.68,1.47,3.04,9.52,18.72,11.46,19.55,2.72,1.16,2.73-1.96,4.32-3.47,45.83-43.44,89.58-89.19,134.05-133.96,12.77-12.85,26.74-24.6,39.03-37.97ZM376.41,466.38l-39.35,39.24c-.57,1.9,7.59,11.31,9.43,13.39,29.45,33.2,75.17,59.14,118.5,68.5,81.52,17.61,172.28-13.93,222.02-81.03l-174.51-175.47c-1.96,2.45-4.72,3.92-7.03,5.96-43.45,38.31-87.75,87.76-129.07,129.41Z"/>
        <path class="cls-1" d="M168,791l49.46-135.07,28.4.2,47.64,134.86h-25l-11.44-28.53-49.54-.47c-1.93.18-2.45,1.27-3.29,2.73-3.9,6.81-4.7,19.3-9.73,26.27h-26.5ZM213,739h37l-19.49-54.01-17.51,54.01Z"/>
        <path class="cls-1" d="M397,691l-35.75,39.49,38.75,60.51h-29.5l-28.04-44c-.9-.22-10.79,10.18-11.58,11.5-.89,1.48.12,1.63.12,2v29l-1.5,1.5h-23l-1.5-1.5v-132l1.5-1.5h23l1.5,1.5v70c0,.36-1.63.81-.51,1.5l2.03.02,33.98-38.02h30.5Z"/>
        <path class="cls-1" d="M496,791h-23.5c-2.86-2.64-1.03-7.43-1.51-11-17.34,19.21-64.03,17.21-66.98-13.51-3.59-37.43,41.6-35.59,67.04-39.93,5.07-22.89-33.06-26.01-37.21-4.73l-22.2-.97-1.24-1.91c5.07-35.65,63.89-42.26,80.79-13.64,1.12,1.9,4.81,9.55,4.81,11.19v74.5ZM472,744c-9.84,1.59-33.54,1.82-40.02,9.49-8.25,9.78,1.1,19.34,11.62,20.4,17.35,1.74,32.09-12.16,28.39-29.89Z"/>
        <path class="cls-1" d="M595,718h-24.5c-3.71-10.27-10.69-11.97-20.99-10.99-13.03,1.25-19.93,14.8-6.5,19.48,16.5,5.74,46.98-.64,53.5,22.5,13.09,46.43-63.23,56.1-82.34,30.34-1.82-2.46-9.27-19.32-4.68-19.32h23.5c2.66,12.25,13.56,13.91,24.54,13.04,15.18-1.22,21.28-16.2,6.02-21.09-22.11-7.08-57.5,1.94-52.3-36.19,5.11-37.48,82.77-39.8,83.74,2.24Z"/>
        <path class="cls-1" d="M855,726h-23.5c-4.07-8.1-6.64-15.88-17-17-15.03-1.63-23.56,6.5-26.25,20.75-2.51,13.26-.81,38.29,15.69,41.8,14.39,3.07,25-4.07,27.06-18.56h23.5c1.92,1.37.57,5.83.03,8.04-6.87,28.24-40.7,38.07-65.81,28.74-30.92-11.5-34.38-63.25-15.7-86.25,23.72-29.21,80.19-17.94,81.98,22.48Z"/>
        <path d="M500,310.5c-12.29,13.37-26.26,25.12-39.03,37.97-44.47,44.77-88.22,90.52-134.05,133.96-1.6,1.52-1.61,4.63-4.32,3.47-1.94-.83-9.99-16.51-11.46-19.55-81.7-169.12,69.98-353.91,251.68-312.68,133.77,30.36,208.41,178.57,153.36,304.99-1.54,3.54-12.54,25.79-14.14,26.86-1.23.82-1.71.49-2.56-.5l-175.95-176.05c-.76-2.37-1.38-12.49,1-12.98,3.04-.64,24.5,18.81,29.94,19.03,2.51-.25,4.74-3.82,4.36-6.29l-15.69-46.04c.25-1.09,1.24-1.48,1.93-2.15,8.5-8.26,26.85-15.73,35.88-24.11,2.8-2.6,4.29-5.9.63-8.52-2.77-1.98-20.11-.69-25.11-.88-2.13-.08-4.04-.95-5.97-1.03-6.82-.29-13.75.59-20.53-.47l-15.19-51.89c-2.3-.96-5.86-.98-7.07,1.61l-13.83,50.6-49.34,1.16c-3.77.47-4.84,5.68-2.52,8.47l38.86,27.19-15.69,46.59c.48,2.39,2.29,3.99,4.72,4.26,5.13.57,23.18-17.43,30.1-17.54v14.5Z"/>
        <path d="M376.41,466.38c41.31-41.65,85.62-91.1,129.07-129.41,2.31-2.03,5.06-3.51,7.03-5.96l174.51,175.47c-49.74,67.1-140.5,98.64-222.02,81.03-43.33-9.36-89.05-35.3-118.5-68.5-1.84-2.08-10-11.49-9.43-13.39l39.35-39.24ZM524,464c38.85-10.96,46.37-61.29,10.69-82.19-45.61-26.72-92.61,36.71-53.16,72.16,5.96,5.36,12.95,7.65,19.31,11.69l.37,94.63c3.74,6.23,13.39,7.62,19.29,3.71,6.31-4.18,1.79-11.73,4.44-13.56,9.87-.6,26.36,1.65,22.85-13.73-.46-2.03-4.57-6.71-6.28-6.71h-17.5v-14.5c6.78-4.16,20.71,2.54,27.06-3.94,3.19-3.26,3.17-10.92-.1-14.02-.38-.36-4.2-2.54-4.46-2.54h-22.5v-31Z"/>
        <path class="cls-1" d="M524,464v31h22.5c.26,0,4.07,2.18,4.46,2.54,3.28,3.1,3.29,10.76.1,14.02-6.35,6.48-20.28-.22-27.06,3.94v14.5h17.5c1.72,0,5.82,4.68,6.28,6.71,3.51,15.38-12.97,13.13-22.85,13.73-2.65,1.84,1.87,9.39-4.44,13.56-5.9,3.91-15.56,2.53-19.29-3.71l-.37-94.63c-6.35-4.05-13.34-6.33-19.31-11.69-39.45-35.45,7.55-98.88,53.16-72.16,35.68,20.9,28.16,71.23-10.69,82.19ZM509.78,398.23c-31.15,3.41-21.98,55.91,10.92,43.97,22.66-8.22,14.96-46.81-10.92-43.97Z"/>
        <path d="M509.78,398.23c25.88-2.83,33.59,35.75,10.92,43.97-32.9,11.94-42.07-40.56-10.92-43.97Z"/>
      </g>
    </g>
  </g>
</svg>